<mxfile host="app.diagrams.net" agent="Mozilla/5.0 (Macintosh; Intel Mac OS X 10_15_7) AppleWebKit/537.36 (KHTML, like Gecko) Chrome/120.0.0.0 Safari/537.36" version="24.7.7">
  <diagram name="第 1 页" id="ugFTTOm9MIeQB7kWlNW_">
    <mxGraphModel dx="1509" dy="1911" grid="0" gridSize="10" guides="0" tooltips="1" connect="0" arrows="1" fold="1" page="1" pageScale="1" pageWidth="827" pageHeight="1169" background="#000000" math="0" shadow="0">
      <root>
        <mxCell id="0" />
        <mxCell id="1" parent="0" />
        <mxCell id="ZmQ37UOVx20-6n8LeS6r-85" value="" style="rounded=0;whiteSpace=wrap;html=1;strokeColor=#FFFFFF;fillColor=#000000;" parent="1" vertex="1">
          <mxGeometry x="226" y="-649" width="1290" height="553" as="geometry" />
        </mxCell>
        <mxCell id="ZmQ37UOVx20-6n8LeS6r-27" value="" style="verticalLabelPosition=bottom;verticalAlign=top;html=1;shape=mxgraph.basic.patternFillRect;fillStyle=diag;step=5;fillStrokeWidth=0.2;fillStrokeColor=#dddddd;fillColor=#C3B7C7;strokeColor=#FFFFFF;" parent="1" vertex="1">
          <mxGeometry x="936" y="-609" width="410" height="410" as="geometry" />
        </mxCell>
        <mxCell id="rc6Dz1Jl7MFZrK2ma3XP-54" style="edgeStyle=orthogonalEdgeStyle;curved=1;rounded=0;orthogonalLoop=1;jettySize=auto;html=1;exitX=1;exitY=0.5;exitDx=0;exitDy=0;entryX=0;entryY=0.5;entryDx=0;entryDy=0;strokeColor=#FFFFFF;startArrow=classic;startFill=1;" parent="1" source="rc6Dz1Jl7MFZrK2ma3XP-46" target="rc6Dz1Jl7MFZrK2ma3XP-21" edge="1">
          <mxGeometry relative="1" as="geometry" />
        </mxCell>
        <mxCell id="rc6Dz1Jl7MFZrK2ma3XP-46" value="" style="rounded=0;whiteSpace=wrap;html=1;dashed=1;dashPattern=8 8;strokeColor=#2C649F;" parent="1" vertex="1">
          <mxGeometry x="236" y="-607" width="160" height="406" as="geometry" />
        </mxCell>
        <mxCell id="rc6Dz1Jl7MFZrK2ma3XP-2" value="&lt;font color=&quot;#ffffff&quot;&gt;Event&lt;br&gt;Source&lt;/font&gt;" style="shape=hexagon;perimeter=hexagonPerimeter2;whiteSpace=wrap;html=1;fixedSize=1;fillColor=#9E4846;strokeColor=#FFFFFF;" parent="1" vertex="1">
          <mxGeometry x="278" y="-545" width="70" height="60" as="geometry" />
        </mxCell>
        <mxCell id="rc6Dz1Jl7MFZrK2ma3XP-3" value="&lt;font color=&quot;#ffffff&quot;&gt;Event&lt;br&gt;Source&lt;/font&gt;" style="shape=hexagon;perimeter=hexagonPerimeter2;whiteSpace=wrap;html=1;fixedSize=1;fillColor=#9E4846;strokeColor=#FFFFFF;" parent="1" vertex="1">
          <mxGeometry x="278" y="-459" width="70" height="60" as="geometry" />
        </mxCell>
        <mxCell id="rc6Dz1Jl7MFZrK2ma3XP-4" value="&lt;font color=&quot;#ffffff&quot;&gt;Event&lt;br&gt;Source&lt;/font&gt;" style="shape=hexagon;perimeter=hexagonPerimeter2;whiteSpace=wrap;html=1;fixedSize=1;fillColor=#9E4846;strokeColor=#FFFFFF;" parent="1" vertex="1">
          <mxGeometry x="278" y="-287" width="70" height="60" as="geometry" />
        </mxCell>
        <mxCell id="rc6Dz1Jl7MFZrK2ma3XP-5" value="&lt;font style=&quot;font-size: 18px;&quot; color=&quot;#ffffff&quot;&gt;事件总线&lt;/font&gt;" style="shape=cylinder3;whiteSpace=wrap;html=1;boundedLbl=1;backgroundOutline=1;size=7;direction=south;fillColor=#00CC00;strokeColor=#33FF99;" parent="1" vertex="1">
          <mxGeometry x="776" y="-431" width="120" height="55" as="geometry" />
        </mxCell>
        <mxCell id="rc6Dz1Jl7MFZrK2ma3XP-6" value="" style="rounded=0;whiteSpace=wrap;html=1;dashed=1;dashPattern=8 8;strokeColor=#2C649F;" parent="1" vertex="1">
          <mxGeometry x="416" y="-607" width="180" height="166" as="geometry" />
        </mxCell>
        <mxCell id="rc6Dz1Jl7MFZrK2ma3XP-7" value="&lt;font color=&quot;#ffffff&quot;&gt;红绿灯事件&lt;/font&gt;" style="ellipse;whiteSpace=wrap;html=1;aspect=fixed;fillColor=#2C649F;strokeColor=#FFFFFF;" parent="1" vertex="1">
          <mxGeometry x="426" y="-557" width="45" height="45" as="geometry" />
        </mxCell>
        <mxCell id="rc6Dz1Jl7MFZrK2ma3XP-8" value="&lt;font color=&quot;#ffffff&quot;&gt;违章&lt;br&gt;事件&lt;/font&gt;" style="ellipse;whiteSpace=wrap;html=1;aspect=fixed;fillColor=#2C649F;strokeColor=#FFFFFF;" parent="1" vertex="1">
          <mxGeometry x="483.5" y="-557" width="45" height="45" as="geometry" />
        </mxCell>
        <mxCell id="rc6Dz1Jl7MFZrK2ma3XP-9" value="&lt;font color=&quot;#ffffff&quot;&gt;违章&lt;br&gt;事件&lt;/font&gt;" style="ellipse;whiteSpace=wrap;html=1;aspect=fixed;fillColor=#2C649F;strokeColor=#FFFFFF;" parent="1" vertex="1">
          <mxGeometry x="536" y="-557" width="45" height="45" as="geometry" />
        </mxCell>
        <mxCell id="rc6Dz1Jl7MFZrK2ma3XP-10" value="&lt;font color=&quot;#ffffff&quot;&gt;天气&lt;br&gt;事件&lt;/font&gt;" style="ellipse;whiteSpace=wrap;html=1;aspect=fixed;fillColor=#2C649F;strokeColor=#FFFFFF;" parent="1" vertex="1">
          <mxGeometry x="427" y="-504" width="45" height="45" as="geometry" />
        </mxCell>
        <mxCell id="rc6Dz1Jl7MFZrK2ma3XP-11" value="&lt;font color=&quot;#ffffff&quot;&gt;路况&lt;br&gt;事件&lt;/font&gt;" style="ellipse;whiteSpace=wrap;html=1;aspect=fixed;fillColor=#2C649F;strokeColor=#FFFFFF;" parent="1" vertex="1">
          <mxGeometry x="484.5" y="-504" width="45" height="45" as="geometry" />
        </mxCell>
        <mxCell id="rc6Dz1Jl7MFZrK2ma3XP-12" value="&lt;font color=&quot;#ffffff&quot;&gt;...&lt;/font&gt;" style="ellipse;whiteSpace=wrap;html=1;aspect=fixed;fillColor=#2C649F;strokeColor=#FFFFFF;" parent="1" vertex="1">
          <mxGeometry x="537" y="-504" width="45" height="45" as="geometry" />
        </mxCell>
        <mxCell id="rc6Dz1Jl7MFZrK2ma3XP-13" value="事件中心&lt;br&gt;（Source+Type)" style="text;html=1;align=center;verticalAlign=middle;whiteSpace=wrap;rounded=0;" parent="1" vertex="1">
          <mxGeometry x="479" y="-597" width="60" height="30" as="geometry" />
        </mxCell>
        <mxCell id="rc6Dz1Jl7MFZrK2ma3XP-14" value="" style="rounded=0;whiteSpace=wrap;html=1;dashed=1;dashPattern=8 8;strokeColor=#2C649F;" parent="1" vertex="1">
          <mxGeometry x="416" y="-371" width="180" height="170" as="geometry" />
        </mxCell>
        <mxCell id="rc6Dz1Jl7MFZrK2ma3XP-15" value="&lt;font color=&quot;#ffffff&quot; style=&quot;font-size: 9px;&quot;&gt;违章事件&lt;br&gt;Schema&lt;/font&gt;&lt;div&gt;&lt;font color=&quot;#ffffff&quot; style=&quot;font-size: 9px;&quot;&gt;&amp;lt;JSON&amp;gt;&lt;/font&gt;&lt;/div&gt;" style="shape=note;whiteSpace=wrap;html=1;backgroundOutline=1;darkOpacity=0.05;direction=south;align=center;size=9;fillColor=#62649F;" parent="1" vertex="1">
          <mxGeometry x="426" y="-320" width="70" height="50" as="geometry" />
        </mxCell>
        <mxCell id="rc6Dz1Jl7MFZrK2ma3XP-16" value="&lt;font color=&quot;#ffffff&quot; style=&quot;font-size: 9px;&quot;&gt;汽车事件&lt;br&gt;Schema&lt;/font&gt;&lt;div&gt;&lt;font color=&quot;#ffffff&quot; style=&quot;font-size: 9px;&quot;&gt;&amp;lt;JSON&amp;gt;&lt;/font&gt;&lt;/div&gt;" style="shape=note;whiteSpace=wrap;html=1;backgroundOutline=1;darkOpacity=0.05;direction=south;align=center;size=9;fillColor=#62649F;" parent="1" vertex="1">
          <mxGeometry x="511" y="-320" width="70" height="50" as="geometry" />
        </mxCell>
        <mxCell id="rc6Dz1Jl7MFZrK2ma3XP-17" value="&lt;font color=&quot;#ffffff&quot; style=&quot;font-size: 9px;&quot;&gt;天气事件&lt;br&gt;Schema&lt;/font&gt;&lt;div&gt;&lt;font color=&quot;#ffffff&quot; style=&quot;font-size: 9px;&quot;&gt;&amp;lt;OpenAPI&amp;gt;&lt;/font&gt;&lt;/div&gt;" style="shape=note;whiteSpace=wrap;html=1;backgroundOutline=1;darkOpacity=0.05;direction=south;align=center;size=9;fillColor=#62649F;" parent="1" vertex="1">
          <mxGeometry x="427" y="-260" width="70" height="50" as="geometry" />
        </mxCell>
        <mxCell id="rc6Dz1Jl7MFZrK2ma3XP-18" value="&lt;font size=&quot;1&quot; color=&quot;#ffffff&quot;&gt;...&lt;/font&gt;" style="shape=note;whiteSpace=wrap;html=1;backgroundOutline=1;darkOpacity=0.05;direction=south;align=center;size=9;fillColor=#62649F;" parent="1" vertex="1">
          <mxGeometry x="511" y="-260" width="70" height="50" as="geometry" />
        </mxCell>
        <mxCell id="rc6Dz1Jl7MFZrK2ma3XP-19" value="事件格式&lt;br&gt;(Schema)" style="text;html=1;align=center;verticalAlign=middle;whiteSpace=wrap;rounded=0;" parent="1" vertex="1">
          <mxGeometry x="477" y="-361" width="60" height="30" as="geometry" />
        </mxCell>
        <mxCell id="rc6Dz1Jl7MFZrK2ma3XP-20" value="事件标准&lt;br&gt;（Specification)" style="text;html=1;align=center;verticalAlign=middle;whiteSpace=wrap;rounded=0;" parent="1" vertex="1">
          <mxGeometry x="278" y="-593" width="60" height="30" as="geometry" />
        </mxCell>
        <mxCell id="9U1nNFspsidCMqpqZjFe-12" style="edgeStyle=orthogonalEdgeStyle;rounded=0;orthogonalLoop=1;jettySize=auto;html=1;exitX=0.5;exitY=1;exitDx=0;exitDy=0;entryX=0;entryY=0.5;entryDx=0;entryDy=0;strokeColor=#FFFFFF;" parent="1" source="rc6Dz1Jl7MFZrK2ma3XP-21" target="9U1nNFspsidCMqpqZjFe-10" edge="1">
          <mxGeometry relative="1" as="geometry" />
        </mxCell>
        <mxCell id="9U1nNFspsidCMqpqZjFe-15" value="&lt;font color=&quot;#2c649f&quot;&gt;过滤掉事件&lt;/font&gt;" style="edgeLabel;html=1;align=center;verticalAlign=middle;resizable=0;points=[];" parent="9U1nNFspsidCMqpqZjFe-12" vertex="1" connectable="0">
          <mxGeometry x="-0.4429" y="6" relative="1" as="geometry">
            <mxPoint y="1" as="offset" />
          </mxGeometry>
        </mxCell>
        <mxCell id="rc6Dz1Jl7MFZrK2ma3XP-21" value="" style="rounded=0;whiteSpace=wrap;html=1;dashed=1;strokeColor=#2C649F;" parent="1" vertex="1">
          <mxGeometry x="636" y="-511" width="77" height="215" as="geometry" />
        </mxCell>
        <mxCell id="rc6Dz1Jl7MFZrK2ma3XP-22" value="&lt;font color=&quot;#ffffff&quot;&gt;Event&lt;/font&gt;" style="rounded=0;whiteSpace=wrap;html=1;fillColor=#2C649F;strokeColor=#FFFFFF;" parent="1" vertex="1">
          <mxGeometry x="644.5" y="-474" width="58.5" height="28" as="geometry" />
        </mxCell>
        <mxCell id="rc6Dz1Jl7MFZrK2ma3XP-23" value="&lt;font color=&quot;#ffffff&quot;&gt;Event&lt;/font&gt;" style="rounded=0;whiteSpace=wrap;html=1;fillColor=#2C649F;strokeColor=#FFFFFF;" parent="1" vertex="1">
          <mxGeometry x="645.25" y="-425" width="58.5" height="28" as="geometry" />
        </mxCell>
        <mxCell id="rc6Dz1Jl7MFZrK2ma3XP-24" value="&lt;font color=&quot;#ffffff&quot;&gt;Event&lt;/font&gt;" style="rounded=0;whiteSpace=wrap;html=1;fillColor=#2C649F;strokeColor=#FFFFFF;" parent="1" vertex="1">
          <mxGeometry x="645.25" y="-356" width="58.5" height="28" as="geometry" />
        </mxCell>
        <mxCell id="rc6Dz1Jl7MFZrK2ma3XP-26" value="... ..." style="text;html=1;align=center;verticalAlign=middle;whiteSpace=wrap;rounded=0;" parent="1" vertex="1">
          <mxGeometry x="644" y="-396" width="60" height="30" as="geometry" />
        </mxCell>
        <mxCell id="rc6Dz1Jl7MFZrK2ma3XP-27" value="&lt;font color=&quot;#2c649f&quot;&gt;&lt;b&gt;Filter&lt;/b&gt;&lt;/font&gt;" style="text;html=1;align=center;verticalAlign=middle;whiteSpace=wrap;rounded=0;" parent="1" vertex="1">
          <mxGeometry x="643" y="-511" width="60" height="30" as="geometry" />
        </mxCell>
        <mxCell id="rc6Dz1Jl7MFZrK2ma3XP-47" value="&lt;font color=&quot;#ffffff&quot;&gt;Event&lt;br&gt;Source&lt;/font&gt;" style="shape=hexagon;perimeter=hexagonPerimeter2;whiteSpace=wrap;html=1;fixedSize=1;fillColor=#9E4846;strokeColor=#FFFFFF;size=18;" parent="1" vertex="1">
          <mxGeometry x="278" y="-372" width="70" height="60" as="geometry" />
        </mxCell>
        <mxCell id="ysmFhrjnMzEB2v9BS9Xg-2" style="edgeStyle=orthogonalEdgeStyle;rounded=0;orthogonalLoop=1;jettySize=auto;html=1;exitX=1;exitY=0.5;exitDx=0;exitDy=0;entryX=0.5;entryY=1;entryDx=0;entryDy=0;entryPerimeter=0;strokeColor=#FFFFFF;" parent="1" source="rc6Dz1Jl7MFZrK2ma3XP-21" target="rc6Dz1Jl7MFZrK2ma3XP-5" edge="1">
          <mxGeometry relative="1" as="geometry" />
        </mxCell>
        <mxCell id="9U1nNFspsidCMqpqZjFe-3" value="&lt;font color=&quot;#2c649f&quot;&gt;&lt;b&gt;&amp;nbsp;前置&lt;br&gt;&amp;nbsp;过滤&lt;/b&gt;&lt;/font&gt;" style="edgeLabel;html=1;align=center;verticalAlign=middle;resizable=0;points=[];" parent="ysmFhrjnMzEB2v9BS9Xg-2" vertex="1" connectable="0">
          <mxGeometry x="-0.3016" y="2" relative="1" as="geometry">
            <mxPoint x="-1" as="offset" />
          </mxGeometry>
        </mxCell>
        <mxCell id="9U1nNFspsidCMqpqZjFe-13" style="edgeStyle=orthogonalEdgeStyle;rounded=0;orthogonalLoop=1;jettySize=auto;html=1;exitX=0.5;exitY=1;exitDx=0;exitDy=0;entryX=1;entryY=0.5;entryDx=0;entryDy=0;strokeColor=#FFFFFF;" parent="1" source="ZmQ37UOVx20-6n8LeS6r-1" target="9U1nNFspsidCMqpqZjFe-17" edge="1">
          <mxGeometry relative="1" as="geometry" />
        </mxCell>
        <mxCell id="9U1nNFspsidCMqpqZjFe-16" value="&lt;font color=&quot;#2c649f&quot;&gt;过滤掉事件和&lt;br&gt;成功投递事件&lt;/font&gt;" style="edgeLabel;html=1;align=center;verticalAlign=middle;resizable=0;points=[];" parent="9U1nNFspsidCMqpqZjFe-13" vertex="1" connectable="0">
          <mxGeometry x="-0.2026" y="-6" relative="1" as="geometry">
            <mxPoint x="3" y="-26" as="offset" />
          </mxGeometry>
        </mxCell>
        <mxCell id="ZmQ37UOVx20-6n8LeS6r-1" value="" style="rounded=0;whiteSpace=wrap;html=1;dashed=1;strokeColor=#2C649F;" parent="1" vertex="1">
          <mxGeometry x="938" y="-507" width="77" height="215" as="geometry" />
        </mxCell>
        <mxCell id="ZmQ37UOVx20-6n8LeS6r-2" value="&lt;font color=&quot;#ffffff&quot;&gt;Event&lt;/font&gt;" style="rounded=0;whiteSpace=wrap;html=1;fillColor=#2C649F;strokeColor=#FFFFFF;" parent="1" vertex="1">
          <mxGeometry x="946.5" y="-470" width="58.5" height="28" as="geometry" />
        </mxCell>
        <mxCell id="ZmQ37UOVx20-6n8LeS6r-3" value="&lt;font color=&quot;#ffffff&quot;&gt;Event&lt;/font&gt;" style="rounded=0;whiteSpace=wrap;html=1;fillColor=#2C649F;strokeColor=#FFFFFF;" parent="1" vertex="1">
          <mxGeometry x="947.25" y="-421" width="58.5" height="28" as="geometry" />
        </mxCell>
        <mxCell id="ZmQ37UOVx20-6n8LeS6r-4" value="&lt;font color=&quot;#ffffff&quot;&gt;Event&lt;/font&gt;" style="rounded=0;whiteSpace=wrap;html=1;fillColor=#2C649F;strokeColor=#FFFFFF;" parent="1" vertex="1">
          <mxGeometry x="947.25" y="-352" width="58.5" height="28" as="geometry" />
        </mxCell>
        <mxCell id="ZmQ37UOVx20-6n8LeS6r-5" value="... ..." style="text;html=1;align=center;verticalAlign=middle;whiteSpace=wrap;rounded=0;" parent="1" vertex="1">
          <mxGeometry x="946" y="-392" width="60" height="30" as="geometry" />
        </mxCell>
        <mxCell id="ZmQ37UOVx20-6n8LeS6r-6" value="&lt;font color=&quot;#2c649f&quot;&gt;&lt;b&gt;Filter&lt;/b&gt;&lt;/font&gt;" style="text;html=1;align=center;verticalAlign=middle;whiteSpace=wrap;rounded=0;" parent="1" vertex="1">
          <mxGeometry x="945" y="-507" width="60" height="30" as="geometry" />
        </mxCell>
        <mxCell id="ZmQ37UOVx20-6n8LeS6r-7" value="" style="rounded=0;whiteSpace=wrap;html=1;dashed=1;strokeColor=#2C649F;" parent="1" vertex="1">
          <mxGeometry x="1120" y="-572" width="70" height="103" as="geometry" />
        </mxCell>
        <mxCell id="ZmQ37UOVx20-6n8LeS6r-8" value="&lt;font color=&quot;#2c649f&quot;&gt;&lt;b&gt;Transform&lt;/b&gt;&lt;/font&gt;" style="text;html=1;align=center;verticalAlign=middle;whiteSpace=wrap;rounded=0;" parent="1" vertex="1">
          <mxGeometry x="1125" y="-572" width="60" height="30" as="geometry" />
        </mxCell>
        <mxCell id="ZmQ37UOVx20-6n8LeS6r-25" style="edgeStyle=orthogonalEdgeStyle;rounded=0;orthogonalLoop=1;jettySize=auto;html=1;exitX=0.5;exitY=1;exitDx=0;exitDy=0;entryX=0.5;entryY=0;entryDx=0;entryDy=0;strokeColor=#2C649F;endSize=3;" parent="1" source="ZmQ37UOVx20-6n8LeS6r-9" target="ZmQ37UOVx20-6n8LeS6r-12" edge="1">
          <mxGeometry relative="1" as="geometry" />
        </mxCell>
        <mxCell id="ZmQ37UOVx20-6n8LeS6r-9" value="" style="shape=offPageConnector;whiteSpace=wrap;html=1;direction=north;size=0.3333333333333333;fillColor=#2C649F;strokeColor=#FFFFFF;" parent="1" vertex="1">
          <mxGeometry x="1140" y="-509" width="30" height="30" as="geometry" />
        </mxCell>
        <mxCell id="ZmQ37UOVx20-6n8LeS6r-10" value="" style="html=1;shadow=0;dashed=0;align=center;verticalAlign=middle;shape=mxgraph.arrows2.arrow;dy=0;dx=0;notch=12.55;direction=west;fillColor=#2C649F;strokeColor=#FFFFFF;" parent="1" vertex="1">
          <mxGeometry x="1140" y="-545" width="29.71" height="26" as="geometry" />
        </mxCell>
        <mxCell id="ZmQ37UOVx20-6n8LeS6r-12" value="" style="shape=offPageConnector;whiteSpace=wrap;html=1;direction=north;size=0.3333333333333333;fillColor=#A9C4EB;strokeColor=#FFFFFF;" parent="1" vertex="1">
          <mxGeometry x="1215" y="-509" width="30" height="30" as="geometry" />
        </mxCell>
        <mxCell id="ZmQ37UOVx20-6n8LeS6r-13" value="" style="html=1;shadow=0;dashed=0;align=center;verticalAlign=middle;shape=mxgraph.arrows2.arrow;dy=0;dx=0;notch=12.55;direction=west;fillColor=#A9C4EB;strokeColor=#FFFFFF;" parent="1" vertex="1">
          <mxGeometry x="1215" y="-545" width="29.71" height="26" as="geometry" />
        </mxCell>
        <mxCell id="ZmQ37UOVx20-6n8LeS6r-51" style="edgeStyle=orthogonalEdgeStyle;rounded=0;orthogonalLoop=1;jettySize=auto;html=1;exitX=1;exitY=0.5;exitDx=0;exitDy=0;entryX=0;entryY=0.5;entryDx=0;entryDy=0;endArrow=none;endFill=0;strokeColor=#9E4846;" parent="1" source="ZmQ37UOVx20-6n8LeS6r-14" target="ZmQ37UOVx20-6n8LeS6r-18" edge="1">
          <mxGeometry relative="1" as="geometry" />
        </mxCell>
        <mxCell id="ZmQ37UOVx20-6n8LeS6r-14" value="" style="rounded=0;whiteSpace=wrap;html=1;dashed=1;strokeColor=#9E4846;" parent="1" vertex="1">
          <mxGeometry x="1255" y="-550" width="40" height="76" as="geometry" />
        </mxCell>
        <mxCell id="ZmQ37UOVx20-6n8LeS6r-16" value="" style="shape=offPageConnector;whiteSpace=wrap;html=1;direction=south;size=0.3333333333333333;fillColor=#9E4846;strokeColor=#FFFFFF;" parent="1" vertex="1">
          <mxGeometry x="1259" y="-546" width="30" height="30" as="geometry" />
        </mxCell>
        <mxCell id="ZmQ37UOVx20-6n8LeS6r-17" value="" style="html=1;shadow=0;dashed=0;align=center;verticalAlign=middle;shape=mxgraph.arrows2.arrow;dy=0;dx=0;notch=12.55;direction=east;fillColor=#9E4846;strokeColor=#FFFFFF;" parent="1" vertex="1">
          <mxGeometry x="1260.1399999999999" y="-508" width="29.71" height="26" as="geometry" />
        </mxCell>
        <mxCell id="ZmQ37UOVx20-6n8LeS6r-18" value="&lt;font color=&quot;#ffffff&quot;&gt;HTTP&lt;/font&gt;&lt;br&gt;&lt;div&gt;&lt;font color=&quot;#ffffff&quot;&gt;Target A&lt;/font&gt;&lt;/div&gt;" style="shape=hexagon;perimeter=hexagonPerimeter2;whiteSpace=wrap;html=1;fixedSize=1;fillColor=#9E4846;strokeColor=#FFFFFF;" parent="1" vertex="1">
          <mxGeometry x="1407" y="-542.5" width="70" height="60" as="geometry" />
        </mxCell>
        <mxCell id="ZmQ37UOVx20-6n8LeS6r-19" value="&lt;font color=&quot;#ffffff&quot;&gt;gRPC&lt;br&gt;Target B&lt;/font&gt;" style="shape=hexagon;perimeter=hexagonPerimeter2;whiteSpace=wrap;html=1;fixedSize=1;fillColor=#9E4846;strokeColor=#FFFFFF;" parent="1" vertex="1">
          <mxGeometry x="1407" y="-420" width="70" height="60" as="geometry" />
        </mxCell>
        <mxCell id="ZmQ37UOVx20-6n8LeS6r-20" value="&lt;font color=&quot;#ffffff&quot;&gt;SDK&lt;br&gt;Target B&lt;/font&gt;" style="shape=hexagon;perimeter=hexagonPerimeter2;whiteSpace=wrap;html=1;fixedSize=1;fillColor=#9E4846;strokeColor=#FFFFFF;" parent="1" vertex="1">
          <mxGeometry x="1407" y="-296" width="70" height="60" as="geometry" />
        </mxCell>
        <mxCell id="ZmQ37UOVx20-6n8LeS6r-26" style="edgeStyle=orthogonalEdgeStyle;rounded=0;orthogonalLoop=1;jettySize=auto;html=1;exitX=0;exitY=0.5;exitDx=12.55;exitDy=0;exitPerimeter=0;entryX=1;entryY=0.5;entryDx=0;entryDy=0;entryPerimeter=0;strokeColor=#2C649F;endSize=3;" parent="1" source="ZmQ37UOVx20-6n8LeS6r-10" target="ZmQ37UOVx20-6n8LeS6r-13" edge="1">
          <mxGeometry relative="1" as="geometry" />
        </mxCell>
        <mxCell id="ZmQ37UOVx20-6n8LeS6r-28" value="" style="rounded=0;whiteSpace=wrap;html=1;dashed=1;strokeColor=#2C649F;" parent="1" vertex="1">
          <mxGeometry x="1120" y="-450" width="70" height="103" as="geometry" />
        </mxCell>
        <mxCell id="ZmQ37UOVx20-6n8LeS6r-29" value="&lt;font color=&quot;#2c649f&quot;&gt;&lt;b&gt;Transform&lt;/b&gt;&lt;/font&gt;" style="text;html=1;align=center;verticalAlign=middle;whiteSpace=wrap;rounded=0;" parent="1" vertex="1">
          <mxGeometry x="1125" y="-450" width="60" height="30" as="geometry" />
        </mxCell>
        <mxCell id="ZmQ37UOVx20-6n8LeS6r-30" style="edgeStyle=orthogonalEdgeStyle;rounded=0;orthogonalLoop=1;jettySize=auto;html=1;exitX=0.5;exitY=1;exitDx=0;exitDy=0;entryX=0.5;entryY=0;entryDx=0;entryDy=0;strokeColor=#2C649F;endSize=3;" parent="1" source="ZmQ37UOVx20-6n8LeS6r-31" target="ZmQ37UOVx20-6n8LeS6r-33" edge="1">
          <mxGeometry relative="1" as="geometry" />
        </mxCell>
        <mxCell id="ZmQ37UOVx20-6n8LeS6r-31" value="" style="shape=offPageConnector;whiteSpace=wrap;html=1;direction=north;size=0.3333333333333333;fillColor=#2C649F;strokeColor=#FFFFFF;" parent="1" vertex="1">
          <mxGeometry x="1140" y="-387" width="30" height="30" as="geometry" />
        </mxCell>
        <mxCell id="ZmQ37UOVx20-6n8LeS6r-32" value="" style="html=1;shadow=0;dashed=0;align=center;verticalAlign=middle;shape=mxgraph.arrows2.arrow;dy=0;dx=0;notch=12.55;direction=west;fillColor=#2C649F;strokeColor=#FFFFFF;" parent="1" vertex="1">
          <mxGeometry x="1140" y="-423" width="29.71" height="26" as="geometry" />
        </mxCell>
        <mxCell id="ZmQ37UOVx20-6n8LeS6r-33" value="" style="shape=offPageConnector;whiteSpace=wrap;html=1;direction=north;size=0.3333333333333333;fillColor=#A9C4EB;strokeColor=#FFFFFF;" parent="1" vertex="1">
          <mxGeometry x="1215" y="-387" width="30" height="30" as="geometry" />
        </mxCell>
        <mxCell id="ZmQ37UOVx20-6n8LeS6r-34" value="" style="html=1;shadow=0;dashed=0;align=center;verticalAlign=middle;shape=mxgraph.arrows2.arrow;dy=0;dx=0;notch=12.55;direction=west;fillColor=#A9C4EB;strokeColor=#FFFFFF;" parent="1" vertex="1">
          <mxGeometry x="1215" y="-423" width="29.71" height="26" as="geometry" />
        </mxCell>
        <mxCell id="ZmQ37UOVx20-6n8LeS6r-52" style="edgeStyle=orthogonalEdgeStyle;rounded=0;orthogonalLoop=1;jettySize=auto;html=1;exitX=1;exitY=0.5;exitDx=0;exitDy=0;entryX=0;entryY=0.5;entryDx=0;entryDy=0;endArrow=none;endFill=0;strokeColor=#9E4846;" parent="1" source="ZmQ37UOVx20-6n8LeS6r-35" target="ZmQ37UOVx20-6n8LeS6r-19" edge="1">
          <mxGeometry relative="1" as="geometry" />
        </mxCell>
        <mxCell id="ZmQ37UOVx20-6n8LeS6r-35" value="" style="rounded=0;whiteSpace=wrap;html=1;dashed=1;strokeColor=#9E4846;" parent="1" vertex="1">
          <mxGeometry x="1255" y="-428" width="40" height="76" as="geometry" />
        </mxCell>
        <mxCell id="ZmQ37UOVx20-6n8LeS6r-36" value="" style="shape=offPageConnector;whiteSpace=wrap;html=1;direction=south;size=0.3333333333333333;fillColor=#9E4846;strokeColor=#FFFFFF;" parent="1" vertex="1">
          <mxGeometry x="1259" y="-424" width="30" height="30" as="geometry" />
        </mxCell>
        <mxCell id="ZmQ37UOVx20-6n8LeS6r-37" value="" style="html=1;shadow=0;dashed=0;align=center;verticalAlign=middle;shape=mxgraph.arrows2.arrow;dy=0;dx=0;notch=12.55;direction=east;fillColor=#9E4846;strokeColor=#FFFFFF;" parent="1" vertex="1">
          <mxGeometry x="1260.1399999999999" y="-386" width="29.71" height="26" as="geometry" />
        </mxCell>
        <mxCell id="ZmQ37UOVx20-6n8LeS6r-38" style="edgeStyle=orthogonalEdgeStyle;rounded=0;orthogonalLoop=1;jettySize=auto;html=1;exitX=0;exitY=0.5;exitDx=12.55;exitDy=0;exitPerimeter=0;entryX=1;entryY=0.5;entryDx=0;entryDy=0;entryPerimeter=0;strokeColor=#2C649F;endSize=3;" parent="1" source="ZmQ37UOVx20-6n8LeS6r-32" target="ZmQ37UOVx20-6n8LeS6r-34" edge="1">
          <mxGeometry relative="1" as="geometry" />
        </mxCell>
        <mxCell id="ZmQ37UOVx20-6n8LeS6r-39" value="&lt;font style=&quot;font-size: 14px;&quot; color=&quot;#2c649f&quot;&gt;&lt;b&gt;订阅 &quot;规则&quot; = 过滤+转换+Target&lt;/b&gt;&lt;/font&gt;" style="text;html=1;align=center;verticalAlign=middle;whiteSpace=wrap;rounded=0;" parent="1" vertex="1">
          <mxGeometry x="995" y="-605" width="250" height="30" as="geometry" />
        </mxCell>
        <mxCell id="ZmQ37UOVx20-6n8LeS6r-40" value="" style="rounded=0;whiteSpace=wrap;html=1;dashed=1;strokeColor=#2C649F;" parent="1" vertex="1">
          <mxGeometry x="1120" y="-326" width="70" height="103" as="geometry" />
        </mxCell>
        <mxCell id="ZmQ37UOVx20-6n8LeS6r-41" value="&lt;font color=&quot;#2c649f&quot;&gt;&lt;b&gt;Transform&lt;/b&gt;&lt;/font&gt;" style="text;html=1;align=center;verticalAlign=middle;whiteSpace=wrap;rounded=0;" parent="1" vertex="1">
          <mxGeometry x="1125" y="-326" width="60" height="30" as="geometry" />
        </mxCell>
        <mxCell id="ZmQ37UOVx20-6n8LeS6r-42" style="edgeStyle=orthogonalEdgeStyle;rounded=0;orthogonalLoop=1;jettySize=auto;html=1;exitX=0.5;exitY=1;exitDx=0;exitDy=0;entryX=0.5;entryY=0;entryDx=0;entryDy=0;strokeColor=#2C649F;endSize=3;" parent="1" source="ZmQ37UOVx20-6n8LeS6r-43" target="ZmQ37UOVx20-6n8LeS6r-45" edge="1">
          <mxGeometry relative="1" as="geometry" />
        </mxCell>
        <mxCell id="ZmQ37UOVx20-6n8LeS6r-43" value="" style="shape=offPageConnector;whiteSpace=wrap;html=1;direction=north;size=0.3333333333333333;fillColor=#2C649F;strokeColor=#FFFFFF;" parent="1" vertex="1">
          <mxGeometry x="1140" y="-263" width="30" height="30" as="geometry" />
        </mxCell>
        <mxCell id="ZmQ37UOVx20-6n8LeS6r-44" value="" style="html=1;shadow=0;dashed=0;align=center;verticalAlign=middle;shape=mxgraph.arrows2.arrow;dy=0;dx=0;notch=12.55;direction=west;fillColor=#2C649F;strokeColor=#FFFFFF;" parent="1" vertex="1">
          <mxGeometry x="1140" y="-299" width="29.71" height="26" as="geometry" />
        </mxCell>
        <mxCell id="ZmQ37UOVx20-6n8LeS6r-45" value="" style="shape=offPageConnector;whiteSpace=wrap;html=1;direction=north;size=0.3333333333333333;fillColor=#A9C4EB;strokeColor=#FFFFFF;" parent="1" vertex="1">
          <mxGeometry x="1215" y="-263" width="30" height="30" as="geometry" />
        </mxCell>
        <mxCell id="ZmQ37UOVx20-6n8LeS6r-46" value="" style="html=1;shadow=0;dashed=0;align=center;verticalAlign=middle;shape=mxgraph.arrows2.arrow;dy=0;dx=0;notch=12.55;direction=west;fillColor=#A9C4EB;strokeColor=#FFFFFF;" parent="1" vertex="1">
          <mxGeometry x="1215" y="-299" width="29.71" height="26" as="geometry" />
        </mxCell>
        <mxCell id="ZmQ37UOVx20-6n8LeS6r-53" style="edgeStyle=orthogonalEdgeStyle;rounded=0;orthogonalLoop=1;jettySize=auto;html=1;exitX=1;exitY=0.5;exitDx=0;exitDy=0;entryX=0;entryY=0.5;entryDx=0;entryDy=0;endArrow=none;endFill=0;strokeColor=#9E4846;" parent="1" source="ZmQ37UOVx20-6n8LeS6r-47" target="ZmQ37UOVx20-6n8LeS6r-20" edge="1">
          <mxGeometry relative="1" as="geometry" />
        </mxCell>
        <mxCell id="ZmQ37UOVx20-6n8LeS6r-47" value="" style="rounded=0;whiteSpace=wrap;html=1;dashed=1;strokeColor=#9E4846;" parent="1" vertex="1">
          <mxGeometry x="1255" y="-304" width="40" height="76" as="geometry" />
        </mxCell>
        <mxCell id="ZmQ37UOVx20-6n8LeS6r-48" value="" style="shape=offPageConnector;whiteSpace=wrap;html=1;direction=south;size=0.3333333333333333;fillColor=#9E4846;strokeColor=#FFFFFF;" parent="1" vertex="1">
          <mxGeometry x="1259" y="-300" width="30" height="30" as="geometry" />
        </mxCell>
        <mxCell id="ZmQ37UOVx20-6n8LeS6r-49" value="" style="html=1;shadow=0;dashed=0;align=center;verticalAlign=middle;shape=mxgraph.arrows2.arrow;dy=0;dx=0;notch=12.55;direction=east;fillColor=#9E4846;strokeColor=#FFFFFF;" parent="1" vertex="1">
          <mxGeometry x="1260.1399999999999" y="-262" width="29.71" height="26" as="geometry" />
        </mxCell>
        <mxCell id="ZmQ37UOVx20-6n8LeS6r-50" style="edgeStyle=orthogonalEdgeStyle;rounded=0;orthogonalLoop=1;jettySize=auto;html=1;exitX=0;exitY=0.5;exitDx=12.55;exitDy=0;exitPerimeter=0;entryX=1;entryY=0.5;entryDx=0;entryDy=0;entryPerimeter=0;strokeColor=#2C649F;endSize=3;" parent="1" source="ZmQ37UOVx20-6n8LeS6r-44" target="ZmQ37UOVx20-6n8LeS6r-46" edge="1">
          <mxGeometry relative="1" as="geometry" />
        </mxCell>
        <mxCell id="ZmQ37UOVx20-6n8LeS6r-54" value="" style="rounded=0;whiteSpace=wrap;html=1;strokeColor=#FFFFFF;fillColor=#000000;" parent="1" vertex="1">
          <mxGeometry x="225" y="-15" width="1290" height="150" as="geometry" />
        </mxCell>
        <mxCell id="ZmQ37UOVx20-6n8LeS6r-57" style="edgeStyle=orthogonalEdgeStyle;rounded=0;orthogonalLoop=1;jettySize=auto;html=1;exitX=0.5;exitY=0;exitDx=0;exitDy=0;exitPerimeter=0;entryX=0;entryY=0.5;entryDx=0;entryDy=0;entryPerimeter=0;strokeColor=#FFFFFF;" parent="1" source="rc6Dz1Jl7MFZrK2ma3XP-5" target="ZmQ37UOVx20-6n8LeS6r-27" edge="1">
          <mxGeometry relative="1" as="geometry" />
        </mxCell>
        <mxCell id="ZmQ37UOVx20-6n8LeS6r-60" style="edgeStyle=orthogonalEdgeStyle;rounded=0;orthogonalLoop=1;jettySize=auto;html=1;exitX=1;exitY=0.5;exitDx=0;exitDy=0;entryX=0.446;entryY=0.231;entryDx=0;entryDy=0;entryPerimeter=0;curved=1;strokeColor=#2C649F;" parent="1" source="ZmQ37UOVx20-6n8LeS6r-1" target="ZmQ37UOVx20-6n8LeS6r-27" edge="1">
          <mxGeometry relative="1" as="geometry">
            <mxPoint x="1116" y="-517" as="targetPoint" />
            <Array as="points">
              <mxPoint x="1035" y="-400" />
              <mxPoint x="1035" y="-514" />
            </Array>
          </mxGeometry>
        </mxCell>
        <mxCell id="9U1nNFspsidCMqpqZjFe-2" value="&lt;font color=&quot;#2c649f&quot;&gt;&lt;b&gt;后置&lt;br&gt;过滤&lt;/b&gt;&lt;/font&gt;" style="edgeLabel;html=1;align=center;verticalAlign=middle;resizable=0;points=[];" parent="ZmQ37UOVx20-6n8LeS6r-60" vertex="1" connectable="0">
          <mxGeometry x="0.0635" y="-15" relative="1" as="geometry">
            <mxPoint as="offset" />
          </mxGeometry>
        </mxCell>
        <mxCell id="ZmQ37UOVx20-6n8LeS6r-65" style="edgeStyle=orthogonalEdgeStyle;rounded=0;orthogonalLoop=1;jettySize=auto;html=1;exitX=1;exitY=0.5;exitDx=0;exitDy=0;curved=1;strokeColor=#2C649F;" parent="1" source="ZmQ37UOVx20-6n8LeS6r-1" edge="1">
          <mxGeometry relative="1" as="geometry">
            <mxPoint x="1116" y="-269" as="targetPoint" />
            <Array as="points">
              <mxPoint x="1035" y="-400" />
              <mxPoint x="1035" y="-270" />
              <mxPoint x="1116" y="-270" />
            </Array>
          </mxGeometry>
        </mxCell>
        <mxCell id="9U1nNFspsidCMqpqZjFe-5" value="&lt;font color=&quot;#2c649f&quot;&gt;&lt;b&gt;后置&lt;br&gt;过滤&lt;/b&gt;&lt;/font&gt;" style="edgeLabel;html=1;align=center;verticalAlign=middle;resizable=0;points=[];" parent="ZmQ37UOVx20-6n8LeS6r-65" vertex="1" connectable="0">
          <mxGeometry x="0.0799" y="16" relative="1" as="geometry">
            <mxPoint as="offset" />
          </mxGeometry>
        </mxCell>
        <mxCell id="ZmQ37UOVx20-6n8LeS6r-71" value="&lt;font color=&quot;#2c649f&quot;&gt;&lt;b&gt;后置&lt;br&gt;过滤&lt;/b&gt;&lt;/font&gt;" style="edgeStyle=none;rounded=0;orthogonalLoop=1;jettySize=auto;html=1;exitX=1;exitY=0.5;exitDx=0;exitDy=0;strokeColor=#2C649F;" parent="1" source="ZmQ37UOVx20-6n8LeS6r-1" edge="1">
          <mxGeometry relative="1" as="geometry">
            <mxPoint x="1116" y="-401" as="targetPoint" />
          </mxGeometry>
        </mxCell>
        <mxCell id="ZmQ37UOVx20-6n8LeS6r-74" value="&lt;font color=&quot;#ffffff&quot;&gt;事件格式&lt;/font&gt;" style="rounded=0;whiteSpace=wrap;html=1;fillColor=#2C649F;strokeColor=#FFFFFF;" parent="1" vertex="1">
          <mxGeometry x="288.88" y="30" width="110" height="60" as="geometry" />
        </mxCell>
        <mxCell id="ZmQ37UOVx20-6n8LeS6r-75" value="&lt;font color=&quot;#ffffff&quot;&gt;事件源&lt;/font&gt;" style="rounded=0;whiteSpace=wrap;html=1;fillColor=#2C649F;strokeColor=#FFFFFF;" parent="1" vertex="1">
          <mxGeometry x="467" y="30" width="110" height="60" as="geometry" />
        </mxCell>
        <mxCell id="ZmQ37UOVx20-6n8LeS6r-76" value="&lt;font color=&quot;#ffffff&quot;&gt;事件规则&lt;/font&gt;" style="rounded=0;whiteSpace=wrap;html=1;fillColor=#CCCCCC;strokeColor=#FFFFFF;" parent="1" vertex="1">
          <mxGeometry x="1197" y="30" width="110" height="60" as="geometry" />
        </mxCell>
        <mxCell id="ZmQ37UOVx20-6n8LeS6r-77" value="&lt;font color=&quot;#ffffff&quot;&gt;事件目标&lt;/font&gt;" style="rounded=0;whiteSpace=wrap;html=1;fillColor=#2C649F;strokeColor=#FFFFFF;" parent="1" vertex="1">
          <mxGeometry x="847" y="30" width="110" height="60" as="geometry" />
        </mxCell>
        <mxCell id="ZmQ37UOVx20-6n8LeS6r-78" style="edgeStyle=none;rounded=0;orthogonalLoop=1;jettySize=auto;html=1;exitX=1;exitY=0.5;exitDx=0;exitDy=0;" parent="1" edge="1">
          <mxGeometry relative="1" as="geometry">
            <mxPoint x="1586" y="-383" as="sourcePoint" />
            <mxPoint x="1586" y="-383" as="targetPoint" />
          </mxGeometry>
        </mxCell>
        <mxCell id="ZmQ37UOVx20-6n8LeS6r-82" value="&lt;font color=&quot;#ffffff&quot;&gt;控制面&lt;/font&gt;" style="text;html=1;align=center;verticalAlign=middle;whiteSpace=wrap;rounded=0;fillColor=#62649F;strokeColor=#9673a6;" parent="1" vertex="1">
          <mxGeometry x="225" y="-15" width="60" height="30" as="geometry" />
        </mxCell>
        <mxCell id="ZmQ37UOVx20-6n8LeS6r-83" value="&lt;font color=&quot;#ffffff&quot;&gt;事件可观测&lt;/font&gt;" style="rounded=0;whiteSpace=wrap;html=1;fillColor=#CCCCCC;strokeColor=#FFFFFF;" parent="1" vertex="1">
          <mxGeometry x="1357" y="30" width="110" height="60" as="geometry" />
        </mxCell>
        <mxCell id="ZmQ37UOVx20-6n8LeS6r-88" value="&lt;font color=&quot;#ffffff&quot;&gt;数据面&lt;/font&gt;" style="text;html=1;align=center;verticalAlign=middle;whiteSpace=wrap;rounded=0;fillColor=#62649F;strokeColor=#9673a6;" parent="1" vertex="1">
          <mxGeometry x="226" y="-649" width="60" height="30" as="geometry" />
        </mxCell>
        <mxCell id="ZmQ37UOVx20-6n8LeS6r-89" value="" style="shape=doubleArrow;whiteSpace=wrap;html=1;direction=south;arrowWidth=0.13333333333333713;arrowSize=0.16666666666666713;strokeColor=#2C649F;fillColor=#FFFFFF;" parent="1" vertex="1">
          <mxGeometry x="1045" y="-96" width="17.5" height="80" as="geometry" />
        </mxCell>
        <mxCell id="ZmQ37UOVx20-6n8LeS6r-92" value="" style="shape=doubleArrow;whiteSpace=wrap;html=1;direction=south;arrowWidth=0.13333333333333713;arrowSize=0.16666666666666713;strokeColor=#2C649F;fillColor=#FFFFFF;" parent="1" vertex="1">
          <mxGeometry x="745" y="-96" width="17.5" height="80" as="geometry" />
        </mxCell>
        <mxCell id="ZmQ37UOVx20-6n8LeS6r-94" value="" style="shape=doubleArrow;whiteSpace=wrap;html=1;direction=south;arrowWidth=0.13333333333333713;arrowSize=0.16666666666666713;strokeColor=#2C649F;fillColor=#FFFFFF;" parent="1" vertex="1">
          <mxGeometry x="439.75" y="-96" width="17.5" height="80" as="geometry" />
        </mxCell>
        <mxCell id="ZmQ37UOVx20-6n8LeS6r-124" value="" style="shape=doubleArrow;whiteSpace=wrap;html=1;direction=south;arrowWidth=0.13333333333333713;arrowSize=0.16666666666666713;strokeColor=#2C649F;fillColor=#FFFFFF;" parent="1" vertex="1">
          <mxGeometry x="1345" y="-96" width="17.5" height="80" as="geometry" />
        </mxCell>
        <mxCell id="ZmQ37UOVx20-6n8LeS6r-125" value="&amp;nbsp; SDK场景获取 事件目标列表" style="text;html=1;align=center;verticalAlign=middle;whiteSpace=wrap;rounded=0;" parent="1" vertex="1">
          <mxGeometry x="1265" y="-69" width="170" height="30" as="geometry" />
        </mxCell>
        <mxCell id="ZmQ37UOVx20-6n8LeS6r-147" value="规则 管理" style="text;html=1;align=center;verticalAlign=middle;whiteSpace=wrap;rounded=0;" parent="1" vertex="1">
          <mxGeometry x="1002.75" y="-71" width="101.25" height="30" as="geometry" />
        </mxCell>
        <mxCell id="ZmQ37UOVx20-6n8LeS6r-148" value="总线 管理" style="text;html=1;align=center;verticalAlign=middle;whiteSpace=wrap;rounded=0;" parent="1" vertex="1">
          <mxGeometry x="704" y="-71" width="101.25" height="30" as="geometry" />
        </mxCell>
        <mxCell id="ZmQ37UOVx20-6n8LeS6r-149" value="&amp;nbsp; &amp;nbsp;事件 源管理" style="text;html=1;align=center;verticalAlign=middle;whiteSpace=wrap;rounded=0;" parent="1" vertex="1">
          <mxGeometry x="398.88" y="-71" width="101.25" height="30" as="geometry" />
        </mxCell>
        <mxCell id="9U1nNFspsidCMqpqZjFe-19" style="edgeStyle=orthogonalEdgeStyle;rounded=0;orthogonalLoop=1;jettySize=auto;html=1;exitX=0.5;exitY=1;exitDx=0;exitDy=0;entryX=0.5;entryY=0;entryDx=0;entryDy=0;strokeColor=#FFFFFF;" parent="1" source="9U1nNFspsidCMqpqZjFe-10" target="9U1nNFspsidCMqpqZjFe-17" edge="1">
          <mxGeometry relative="1" as="geometry" />
        </mxCell>
        <mxCell id="9U1nNFspsidCMqpqZjFe-20" value="&lt;font color=&quot;#2c649f&quot;&gt;事件归档存储(保存7天)&lt;/font&gt;" style="edgeLabel;html=1;align=center;verticalAlign=middle;resizable=0;points=[];" parent="9U1nNFspsidCMqpqZjFe-19" vertex="1" connectable="0">
          <mxGeometry x="-0.2" y="1" relative="1" as="geometry">
            <mxPoint as="offset" />
          </mxGeometry>
        </mxCell>
        <mxCell id="9U1nNFspsidCMqpqZjFe-10" value="&lt;font style=&quot;font-size: 14px;&quot; color=&quot;#ffffff&quot;&gt;复用总线MQ集群&lt;br&gt;固定Topic&lt;/font&gt;" style="rounded=0;whiteSpace=wrap;html=1;fillColor=#00CC00;strokeColor=#FFFFFF;shadow=1;" parent="1" vertex="1">
          <mxGeometry x="775" y="-286" width="120" height="60" as="geometry" />
        </mxCell>
        <mxCell id="9U1nNFspsidCMqpqZjFe-17" value="&lt;font color=&quot;#ffffff&quot;&gt;事件存储&lt;/font&gt;" style="shape=datastore;whiteSpace=wrap;html=1;fillColor=#9E4846;strokeColor=#FFFFFF;" parent="1" vertex="1">
          <mxGeometry x="785" y="-169" width="100" height="60" as="geometry" />
        </mxCell>
        <mxCell id="iX2ODuhlLIFTZD0lGzSY-1" value="&lt;font color=&quot;#ffffff&quot;&gt;客户端(SDK)&lt;/font&gt;" style="rounded=0;whiteSpace=wrap;html=1;fillColor=#2C649F;strokeColor=#FFFFFF;" parent="1" vertex="1">
          <mxGeometry x="1030" y="30" width="110" height="60" as="geometry" />
        </mxCell>
        <mxCell id="Zy6YyxRRQZzNbFtgBrPt-1" style="edgeStyle=orthogonalEdgeStyle;rounded=0;orthogonalLoop=1;jettySize=auto;html=1;exitX=0;exitY=0.25;exitDx=0;exitDy=0;entryX=0;entryY=0.5;entryDx=0;entryDy=0;" parent="1" source="ZmQ37UOVx20-6n8LeS6r-149" target="ZmQ37UOVx20-6n8LeS6r-149" edge="1">
          <mxGeometry relative="1" as="geometry" />
        </mxCell>
        <mxCell id="Zy6YyxRRQZzNbFtgBrPt-2" value="&lt;font color=&quot;#ffffff&quot;&gt;事件总线&lt;/font&gt;" style="rounded=0;whiteSpace=wrap;html=1;fillColor=#2C649F;strokeColor=#FFFFFF;" parent="1" vertex="1">
          <mxGeometry x="665" y="30" width="110" height="60" as="geometry" />
        </mxCell>
      </root>
    </mxGraphModel>
  </diagram>
</mxfile>
